<?xml version="1.0" encoding="UTF-8"?>
<svg width="46px" height="46px" viewBox="0 0 46 46" version="1.1" xmlns="http://www.w3.org/2000/svg" xmlns:xlink="http://www.w3.org/1999/xlink">
    <!-- Generator: Sketch 45.1 (43504) - http://www.bohemiancoding.com/sketch -->
    <title>FormElements/Favorite/*Default</title>
    <desc>Created with Sketch.</desc>
    <defs>
        <path d="M20.9105985,0 C15.0222081,0.039908538 9.1339652,1.50472155 5.35807162,5.35777655 C1.50435271,9.1341865 0.0398347699,15.0223556 0,20.9107461 C0.0400560742,26.7992103 1.50472155,32.6877483 5.35807162,36.4633468 C9.13352259,40.3169181 15.0222081,41.7815098 20.9105248,41.8214922 C26.798989,41.7814361 32.6871581,40.3169181 36.4634205,36.4633468 C40.3167706,32.6873794 41.7813623,26.7990627 41.8212708,20.9106723 C41.7813623,15.0221343 40.3166968,9.13359636 36.4634205,5.35785032 C32.687527,1.50457401 26.7989152,0.039908538 20.9105985,0 Z" id="path-1"></path>
        <filter x="-9.6%" y="-4.8%" width="119.1%" height="119.1%" filterUnits="objectBoundingBox" id="filter-2">
            <feOffset dx="0" dy="2" in="SourceAlpha" result="shadowOffsetOuter1"></feOffset>
            <feGaussianBlur stdDeviation="1" in="shadowOffsetOuter1" result="shadowBlurOuter1"></feGaussianBlur>
            <feComposite in="shadowBlurOuter1" in2="SourceAlpha" operator="out" result="shadowBlurOuter1"></feComposite>
            <feColorMatrix values="0 0 0 0 0.211764706   0 0 0 0 0.203921569   0 0 0 0 0.2  0 0 0 0.25 0" type="matrix" in="shadowBlurOuter1"></feColorMatrix>
        </filter>
    </defs>
    <g id="Symbols" stroke="none" stroke-width="1" fill="none" fill-rule="evenodd">
        <g id="FormElements/Favorite/*Default">
            <g id="Form/Favorite/Inactive" transform="translate(2.000000, 0.000000)">
                <g id="Fill-1">
                    <use fill="black" fill-opacity="1" filter="url(#filter-2)" xlink:href="#path-1"></use>
                    <use fill="#FFFFFF" fill-rule="evenodd" xlink:href="#path-1"></use>
                    <path stroke="#F9F7F6" stroke-width="1" d="M20.9072098,0.499988516 L20.9139872,0.499988517 C14.4904163,0.543524238 9.09282296,2.26107282 5.70802482,5.71489384 C2.26087141,9.09289434 0.543446277,14.4901926 0.499988432,20.9073449 C0.543688082,27.3314348 2.26122979,32.7289827 5.71522664,36.1134321 C9.09225484,39.5603366 14.4898184,41.2778833 20.9071236,41.3215037 C27.3312527,41.2778038 32.7284687,39.5603804 36.1134712,36.1062257 C39.5602965,32.7286193 41.2777445,27.3311697 41.3212823,20.9140609 C41.2777447,14.4900505 39.5602405,9.09238959 36.1062994,5.70779961 C32.728767,2.26104846 27.3310318,0.543526485 20.9072098,0.499988516 Z"></path>
                </g>
                <path d="M20.9996563,31.0498484 L20.6615029,30.8580907 C20.4532498,30.7398744 15.5431511,27.9466716 13.176764,25.4696285 C9.70381765,21.8344785 8.99726929,17.6522346 11.4591917,15.3002808 C13.7925882,13.0734164 17.6476755,13.7641567 20.9996563,16.942937 C24.3516372,13.7641567 28.2080991,13.0720418 30.5408083,15.3002808 C33.0027307,17.6522346 32.2961824,21.8344785 28.823236,25.4696285 C26.4568489,27.9466716 21.5467502,30.7398744 21.3384971,30.8580907 L20.9996563,31.0498484 Z M14.8104852,15.3738223 C13.8853742,15.3738223 13.0585477,15.6734868 12.4090456,16.2941222 C10.5320188,18.0872979 11.256437,21.4702074 14.1706053,24.5204619 C16.0558798,26.4937113 19.8484224,28.7893061 20.9996563,29.4649258 C22.1515776,28.7893061 25.9454948,26.4923366 27.8287074,24.5204619 C30.743563,21.4702074 31.4672939,18.0872979 29.5909544,16.2941222 C27.7262991,14.5126306 24.3969993,15.373135 21.4952024,18.3876497 L20.9996563,18.901753 L20.5047976,18.3876497 C18.6140247,16.4233353 16.5411163,15.3738223 14.8104852,15.3738223 L14.8104852,15.3738223 Z" id="Fill-1" fill="#9A9999"></path>
            </g>
        </g>
    </g>
</svg>